<svg width="18" height="13" viewBox="0 0 18 13" fill="none" xmlns="http://www.w3.org/2000/svg">
<path d="M8.77162 4.34299C8.14101 4.34299 7.53622 4.5935 7.0903 5.03941C6.64439 5.48533 6.39388 6.09012 6.39388 6.72074C6.39388 7.35135 6.64439 7.95614 7.0903 8.40206C7.53622 8.84797 8.14101 9.09848 8.77162 9.09848C9.40224 9.09848 10.007 8.84797 10.4529 8.40206C10.8989 7.95614 11.1494 7.35135 11.1494 6.72074C11.1494 6.09012 10.8989 5.48533 10.4529 5.03941C10.007 4.5935 9.40224 4.34299 8.77162 4.34299ZM8.77162 10.6836C7.72059 10.6836 6.71261 10.2661 5.96942 9.52294C5.22623 8.77975 4.80871 7.77176 4.80871 6.72074C4.80871 5.66971 5.22623 4.66172 5.96942 3.91853C6.71261 3.17534 7.72059 2.75782 8.77162 2.75782C9.82265 2.75782 10.8306 3.17534 11.5738 3.91853C12.317 4.66172 12.7345 5.66971 12.7345 6.72074C12.7345 7.77176 12.317 8.77975 11.5738 9.52294C10.8306 10.2661 9.82265 10.6836 8.77162 10.6836ZM8.77162 0.776367C4.80871 0.776367 1.42439 3.2413 0.0532227 6.72074C1.42439 10.2002 4.80871 12.6651 8.77162 12.6651C12.7345 12.6651 16.1189 10.2002 17.49 6.72074C16.1189 3.2413 12.7345 0.776367 8.77162 0.776367Z" fill="white"/>
</svg>
