<svg width="11" height="11" viewBox="0 0 11 11" fill="none" xmlns="http://www.w3.org/2000/svg">
<path d="M9.0541 0.232117L10.6854 1.86344L9.44181 3.1076L7.81049 1.47627L9.0541 0.232117ZM3.0791 7.83844H4.71043L8.67291 3.87595L7.04159 2.24463L3.0791 6.20712V7.83844Z" fill="white"/>
<path d="M9.06075 9.46981H3.16514C3.151 9.46981 3.13632 9.47525 3.12218 9.47525C3.10424 9.47525 3.0863 9.47035 3.06781 9.46981H1.4479V1.85696H5.17113L6.25868 0.769409H1.4479C0.848118 0.769409 0.360352 1.25663 0.360352 1.85696V9.46981C0.360352 10.0701 0.848118 10.5574 1.4479 10.5574H9.06075C9.34919 10.5574 9.62581 10.4428 9.82976 10.2388C10.0337 10.0349 10.1483 9.75825 10.1483 9.46981V4.75637L9.06075 5.84392V9.46981Z" fill="white"/>
</svg>
