<svg width="28" height="28" viewBox="0 0 28 28" fill="none" xmlns="http://www.w3.org/2000/svg">
<path d="M6.4248 6.125H13.1748C13.7936 6.125 14.2998 5.61875 14.2998 5C14.2998 4.38125 13.7936 3.875 13.1748 3.875H6.4248C5.1873 3.875 4.1748 4.8875 4.1748 6.125V21.875C4.1748 23.1125 5.1873 24.125 6.4248 24.125H13.1748C13.7936 24.125 14.2998 23.6188 14.2998 23C14.2998 22.3813 13.7936 21.875 13.1748 21.875H6.4248V6.125Z" fill="#0A2478"/>
<path d="M24.0311 13.6108L20.8923 10.472C20.8141 10.3917 20.7136 10.3365 20.6038 10.3135C20.494 10.2905 20.3799 10.3009 20.276 10.3431C20.1721 10.3854 20.0832 10.4577 20.0206 10.5509C19.958 10.644 19.9247 10.7536 19.9248 10.8658V12.8795H12.0498C11.4311 12.8795 10.9248 13.3858 10.9248 14.0045C10.9248 14.6233 11.4311 15.1295 12.0498 15.1295H19.9248V17.1433C19.9248 17.6495 20.5323 17.897 20.8811 17.537L24.0198 14.3983C24.2448 14.1845 24.2448 13.8245 24.0311 13.6108Z" fill="#0A2478"/>
</svg>
