<svg width="19" height="18" viewBox="0 0 19 18" fill="none" xmlns="http://www.w3.org/2000/svg">
<path fill-rule="evenodd" clip-rule="evenodd" d="M15.9912 2.56136L3.39919 7.11436L7.59419 9.54236L11.2932 5.84236C11.4808 5.65485 11.7353 5.54956 12.0005 5.54966C12.2658 5.54975 12.5202 5.65522 12.7077 5.84286C12.8952 6.0305 13.0005 6.28494 13.0004 6.55021C13.0003 6.81548 12.8948 7.06985 12.7072 7.25736L9.00719 10.9574L11.4372 15.1514L15.9912 2.56136ZM16.3142 0.31736C17.5092 -0.11564 18.6672 1.04236 18.2342 2.23736L12.9522 16.8424C12.5182 18.0404 10.8822 18.1864 10.2432 17.0834L7.02619 11.5254L1.46819 8.30836C0.365189 7.66936 0.511189 6.03336 1.70919 5.59936L16.3142 0.31736Z" fill="white"/>
</svg>
